<svg xmlns="http://www.w3.org/2000/svg" viewBox="0 0 47.99 47.99"><defs><style>.cls-1{fill:#fff;}.cls-2{fill:#d70000;}</style></defs><g id="Layer_2" data-name="Layer 2"><g id="Layer_1-2" data-name="Layer 1"><rect class="cls-1" x="4.74" y="5.19" width="40.13" height="36.77"/><path class="cls-2" d="M26,31.17a2,2,0,1,1-2-2A2,2,0,0,1,26,31.17Z"/><path class="cls-2" d="M22.34,25.76V18.88a1.66,1.66,0,1,1,3.31,0v6.88a1.66,1.66,0,1,1-3.31,0Z"/><path class="cls-2" d="M40.44,0H7.55A7.55,7.55,0,0,0,0,7.55V40.44A7.55,7.55,0,0,0,7.55,48H40.44A7.55,7.55,0,0,0,48,40.44V7.55A7.55,7.55,0,0,0,40.44,0Zm.15,36.41A4.13,4.13,0,0,1,37,38.5H11a4,4,0,0,1-3.57-2.09,4.11,4.11,0,0,1,0-4.11l13-21.82a4.16,4.16,0,0,1,3.53-2,4.11,4.11,0,0,1,3.54,2l13,21.79A4.11,4.11,0,0,1,40.59,36.41Z"/></g></g></svg>