<svg xmlns="http://www.w3.org/2000/svg" viewBox="0 0 24 24"><defs><style>.cls-1{fill:none;}.cls-2{fill-rule:evenodd;}</style></defs><g id="Layer_2" data-name="Layer 2"><g id="Layer_1-2" data-name="Layer 1"><polygon class="cls-1" points="24 24 0 24 0 0 24 0 24 24"/><path class="cls-2" d="M17,3V5h2a1,1,0,0,1,1,1V21a1,1,0,0,1-1,1H8a1,1,0,0,1-1-1V19H5a1,1,0,0,1-1-1V3A1,1,0,0,1,5,2H16A1,1,0,0,1,17,3Zm-1,.39A.41.41,0,0,0,15.6,3H5.4a.4.4,0,0,0-.4.39v14a.4.4,0,0,0,.4.39H7V6A1,1,0,0,1,8,5h8ZM8.34,6A.35.35,0,0,0,8,6.35v14.3a.35.35,0,0,0,.34.35H18.66a.35.35,0,0,0,.34-.35V6.35A.35.35,0,0,0,18.66,6Z"/></g></g></svg>