<svg xmlns="http://www.w3.org/2000/svg" viewBox="0 0 1818.57 253.66"><defs><style>.cls-1,.cls-4{fill:#175ddc;}.cls-2{fill:#fff;}.cls-2,.cls-3{stroke:#fff;}.cls-2,.cls-4{stroke-miterlimit:10;}.cls-3{fill:none;stroke-linecap:round;stroke-linejoin:round;stroke-width:15px;}.cls-4{stroke:#175ddc;stroke-width:7px;}</style></defs><g id="Layer_2" data-name="Layer 2"><g id="Layer_1-2" data-name="Layer 1"><g id="Layer_2-2" data-name="Layer 2"><g id="Layer_1-2-2" data-name="Layer 1-2"><rect class="cls-1" width="253.66" height="253.66" rx="45.76"/><path class="cls-2" d="M23.17,113.54,35,117.62V105.31a4.23,4.23,0,0,1,4.23-4.23h4.39a4.23,4.23,0,0,1,4.23,4.23h0v12.31l11.7-4.52A4.22,4.22,0,0,1,65,115.55v0l1.53,4.14A4.23,4.23,0,0,1,64,125.15l-.12,0-12.42,4.2,8.56,10.55a4.24,4.24,0,0,1-.63,5.95l-.07.05-3.88,3a4.24,4.24,0,0,1-5.93-.82l-.07-.1-7.81-11.13-7.86,11.2a4.23,4.23,0,0,1-5.88,1.08l-.12-.08-4-2.93a4.23,4.23,0,0,1-.88-5.93l.05-.07,8.17-10.5L19.09,126.4a4.23,4.23,0,0,1-3-5.19l.06-.21,1.6-4.77a4.23,4.23,0,0,1,5.33-2.71Z"/><path class="cls-2" d="M81.84,113.54l11.79,4.08V105.31a4.23,4.23,0,0,1,4.23-4.23h4.39a4.23,4.23,0,0,1,4.23,4.23h0v12.31l11.7-4.52a4.23,4.23,0,0,1,5.47,2.42l0,.06,1.53,4.14a4.23,4.23,0,0,1-2.5,5.43l-.11,0-12.42,4.2,8.56,10.55a4.23,4.23,0,0,1-.65,6l0,0-3.88,3a4.24,4.24,0,0,1-5.93-.82l-.07-.1-7.81-11.13-7.86,11.2a4.23,4.23,0,0,1-5.88,1.08l-.12-.08-4-2.93a4.22,4.22,0,0,1-.89-5.91l.06-.09,8.17-10.5L77.76,126.4a4.23,4.23,0,0,1-3-5.19l.06-.21,1.6-4.77a4.23,4.23,0,0,1,5.33-2.71Z"/><path class="cls-2" d="M140.49,113.54l11.79,4.08V105.31a4.23,4.23,0,0,1,4.23-4.23h4.39a4.23,4.23,0,0,1,4.23,4.23v12.31l11.7-4.52a4.23,4.23,0,0,1,5.47,2.42l0,.06,1.53,4.14a4.23,4.23,0,0,1-2.51,5.43l-.11,0-12.41,4.2,8.56,10.55a4.23,4.23,0,0,1-.65,6l0,0-3.88,3a4.24,4.24,0,0,1-6-.78l-.1-.14-7.81-11.13-7.86,11.2a4.23,4.23,0,0,1-5.87,1.1l-.13-.1-4-2.93a4.22,4.22,0,0,1-.89-5.91l.06-.09,8.16-10.5-12.06-3.23a4.26,4.26,0,0,1-3-5.22l.07-.22,1.61-4.77a4.23,4.23,0,0,1,5.33-2.72Z"/><line class="cls-3" x1="189.18" y1="148.61" x2="235.56" y2="148.61"/><path class="cls-4" d="M1226.05,205.13h-57.57V48.5h84.65q37.06,0,56.35,14.36Q1328,76.57,1328,101.37q0,55-72.94,55h-29Zm0-85.27h24q23.16,0,23.17-18.28,0-16.53-30.74-16.53h-16.34Z"/><path class="cls-4" d="M1359.36,205.13H1303L1366,48.5h58.54l62.94,156.63H1430.1l-6.83-20.66H1366Zm53.91-53.3-18.54-56.12-17.81,56.12Z"/><path class="cls-4" d="M1637.94,94H1583.3a13.66,13.66,0,0,0-8.3-10.66,35.2,35.2,0,0,0-14.88-2.83q-18.28,0-18.29,8.92t26.1,14.79q37.82,8.72,48.79,13.93,26.1,12.61,26.1,37.2,0,26.31-22.93,40.68-21.72,13.26-59.28,13.26-33.91,0-55.86-15.66-21-14.79-22-36.76h55.13q1.71,8.06,9.52,12.4a33.22,33.22,0,0,0,16.34,3.91q23.91,0,23.91-11.53,0-8.91-26.1-14.57-37.33-8.27-48.79-13.92-26.1-12.84-26.1-38.72,0-24.15,21.71-37.42,20.24-12.62,54.4-12.62,34.63,0,54.39,14.58Q1634.53,71.78,1637.94,94Z"/><path class="cls-4" d="M1810.19,94h-54.64a13.65,13.65,0,0,0-8.29-10.66,35.35,35.35,0,0,0-14.88-2.83q-18.3,0-18.3,8.92t26.1,14.79q37.82,8.72,48.79,13.93,26.1,12.61,26.1,37.2,0,26.31-22.93,40.68-21.72,13.26-59.28,13.26-33.9,0-55.86-15.66-21-14.79-22-36.76h55.13q1.69,8.06,9.51,12.4a33.23,33.23,0,0,0,16.35,3.91q23.9,0,23.9-11.53,0-8.91-26.1-14.57-37.32-8.27-48.79-13.92-26-12.87-26-38.75,0-24.15,21.71-37.42,20.25-12.62,54.4-12.62,34.64,0,54.4,14.58Q1806.78,71.78,1810.19,94Z"/><path d="M339,208.63H285.4V45h78.85q34.53,0,52.49,15Q434,74.34,434,100.24q0,57.49-67.94,57.49H339Zm0-89.07h22.27q21.59,0,21.59-19.09,0-17.27-28.63-17.27H339Z"/><path d="M743.71,45l19.54,101.11h.45L782.11,45h51.81L793.24,208.6H740.53l-18.86-95h-.46l-18.63,95H649.86L609.19,45H661l18.4,101.11h.46L699.4,45Z"/><path d="M980,208.63H843.46V45H976.84V83.2H897.08v23.41h67.49v38.17H897.08v25.68H980Z"/><path d="M1138.17,208.61h-51.46c0-5.38.1-14.39.1-28.63q0-16.81-5-22.27-5.67-6.12-23.63-6.11h-16.36v57H988.2V45h77.25q40,0,56.81,11.36,15.67,10.68,15.68,35.22,0,32.49-27.5,40,15.45,5.68,20.45,11.82,7.27,9.09,7.28,31.58M1041.82,83.2v32.49H1063q25.45,0,25.45-15.45,0-17-21.58-17Z"/><path d="M527.46,41.72q41.1,0,64.37,26.2,21,23.49,21,58.5,0,40.42-24.62,63.91-23.51,22.59-60.76,22.59-38.85,0-61.66-22.81Q442.31,166.84,442.31,126q0-38.16,23.49-61.21T527.46,41.72ZM527,81.47q-16.5.23-24.85,14.91-6.56,11.75-6.55,30,0,19,6.33,31.16,8.13,15.59,25.52,15.59,32.07,0,32.07-46.75,0-18.75-7.45-30.95Q543.28,81.26,527,81.47Z"/></g></g></g></g></svg>