<svg xmlns="http://www.w3.org/2000/svg" viewBox="0 0 253.66 253.66"><defs><style>.cls-1{fill:#175ddc;}.cls-2,.cls-3{fill:#fff;stroke:#fff;}.cls-2{stroke-miterlimit:10;}.cls-3{stroke-linecap:round;stroke-linejoin:round;stroke-width:15px;}</style></defs><g id="Layer_2" data-name="Layer 2"><g id="Layer_1-2" data-name="Layer 1"><rect class="cls-1" width="253.66" height="253.66" rx="45.76"/><path class="cls-2" d="M23.17,113.54,35,117.62V105.31a4.23,4.23,0,0,1,4.24-4.23h4.38a4.23,4.23,0,0,1,4.23,4.23v12.31l11.7-4.52A4.22,4.22,0,0,1,65,115.58l1.53,4.14a4.22,4.22,0,0,1-2.61,5.47l-12.42,4.2,8.56,10.55a4.23,4.23,0,0,1-.7,6l-3.88,3a4.23,4.23,0,0,1-6-.92l-7.81-11.13-7.86,11.2a4.23,4.23,0,0,1-6,1l-4-2.93a4.24,4.24,0,0,1-.83-6l8.17-10.5L19.09,126.4A4.23,4.23,0,0,1,16.18,121l1.6-4.77A4.23,4.23,0,0,1,23.17,113.54Z"/><path class="cls-2" d="M81.84,113.54l11.79,4.08V105.31a4.23,4.23,0,0,1,4.23-4.23h4.39a4.23,4.23,0,0,1,4.23,4.23v12.31l11.7-4.52a4.23,4.23,0,0,1,5.49,2.48l1.53,4.14a4.23,4.23,0,0,1-2.61,5.47l-12.42,4.2,8.56,10.55a4.24,4.24,0,0,1-.7,6l-3.88,3a4.23,4.23,0,0,1-6-.92l-7.81-11.13-7.86,11.2a4.23,4.23,0,0,1-6,1l-4-2.93a4.23,4.23,0,0,1-.83-6l8.17-10.5L77.76,126.4A4.23,4.23,0,0,1,74.85,121l1.6-4.77A4.23,4.23,0,0,1,81.84,113.54Z"/><path class="cls-2" d="M140.49,113.54l11.79,4.08V105.31a4.23,4.23,0,0,1,4.23-4.23h4.39a4.23,4.23,0,0,1,4.23,4.23v12.31l11.7-4.52a4.23,4.23,0,0,1,5.49,2.48l1.53,4.14a4.23,4.23,0,0,1-2.62,5.47l-12.41,4.2,8.56,10.55a4.24,4.24,0,0,1-.7,6l-3.88,3a4.24,4.24,0,0,1-6.05-.92l-7.81-11.13-7.86,11.2a4.22,4.22,0,0,1-6,1l-4-2.93a4.23,4.23,0,0,1-.83-6l8.16-10.5-12.06-3.23a4.25,4.25,0,0,1-2.92-5.44l1.61-4.77A4.23,4.23,0,0,1,140.49,113.54Z"/><line class="cls-3" x1="189.18" y1="148.61" x2="235.56" y2="148.61"/></g></g></svg>